# xmcd
#
# Track frame offsets:
#	150
#	23441
#	43088
#	66205
#	84056
#	107545
#	126955
#	148315
#	177931
#	194955
#	216910
#	233103
#	250427
#	268131
#	287353
#	311600
#	339852
#
# Disc length: 4749 seconds
#
# Revision: 1
# Processed by: cddbd v1.5.2PL0 Copyright (c) Steve Scherf et al.
# Submitted via: audiograbber 1.83.01
#
DISCID=fb128b11
DTITLE=Tony Joe White - Collected - CD2
DYEAR=2012
DGENRE=Blues
TTITLE0=I Get Off On It
TTITLE1=Tunica Motel
TTITLE2=Ain't Going Down This Time
TTITLE3=Steamy Windows
TTITLE4=(You're Gonna Look) Good In Blues
TTITLE5=Cool Town Woman
TTITLE6=Undercover Agent For The Blues
TTITLE7=Closer To The Truth
TTITLE8=On The Return To Muscle Shoals
TTITLE9=I Want To Be With You
TTITLE10=Backside Of Paradise
TTITLE11=Way Down South
TTITLE12=Tina
TTITLE13=Up In Arkansas
TTITLE14=Always The Song
TTITLE15=The Path Of A Decent Groove
TTITLE16=Paris Mood Tonight
EXTD=
EXTT0=
EXTT1=
EXTT2=
EXTT3=
EXTT4=
EXTT5=
EXTT6=
EXTT7=
EXTT8=
EXTT9=
EXTT10=
EXTT11=
EXTT12=
EXTT13=
EXTT14=
EXTT15=
EXTT16=
PLAYORDER=
